P2
# CREATOR: GIMP PNM Filter Version 1.1
40 40
255
255
255
255
255
255
255
255
255
251
237
255
255
255
255
255
255
255
255
255
255
255
255
255
255
255
255
255
255
255
255
255
255
255
255
255
255
255
255
255
208
255
255
255
255
255
255
255
255
255
255
227
241
255
255
255
255
255
255
255
255
255
255
255
255
255
255
255
255
255
255
255
255
255
255
255
255
255
255
255
196
255
255
255
255
255
255
255
255
255
255
255
238
211
255
255
255
255
255
255
255
255
255
255
255
255
255
255
255
255
255
255
255
255
255
255
255
255
255
255
204
255
255
255
255
255
255
255
255
255
255
255
255
236
221
255
255
255
255
255
255
255
255
255
255
255
255
255
255
255
255
255
255
255
255
255
255
255
255
255
193
255
255
255
255
255
255
255
255
255
255
255
255
255
183
255
255
255
255
255
255
255
255
255
255
255
255
255
255
255
255
255
255
255
255
255
255
255
255
255
200
255
255
255
255
255
255
255
255
255
255
255
255
255
240
197
255
255
255
255
255
255
255
255
255
255
255
255
255
255
255
255
255
255
255
255
255
255
255
255
193
255
255
255
255
255
255
255
255
255
255
255
255
255
255
170
255
255
255
254
241
232
221
204
212
230
238
250
255
255
255
255
255
255
255
255
255
255
255
255
199
255
255
255
255
255
255
255
255
255
255
255
255
255
167
247
255
255
161
57
30
22
24
27
25
21
27
43
115
245
255
255
255
255
255
255
255
255
255
255
194
255
255
255
255
255
255
255
255
255
255
255
255
215
180
255
188
26
16
39
47
45
45
45
45
45
46
45
25
6
135
242
255
255
255
255
255
255
255
255
228
255
255
255
201
108
77
85
113
141
149
119
103
218
255
63
17
39
41
41
40
40
40
42
42
43
44
44
44
43
32
19
215
255
255
255
255
255
255
255
255
255
224
80
121
208
241
243
229
215
216
246
255
241
40
24
38
36
36
36
36
36
37
37
38
39
40
42
44
44
45
39
8
182
255
255
255
255
255
255
255
238
15
243
255
255
255
255
255
255
255
255
245
13
28
33
32
32
31
31
31
31
32
32
34
35
36
38
40
42
44
44
43
6
184
255
255
255
255
255
255
134
216
255
255
255
255
255
255
255
255
255
76
23
30
29
27
27
26
26
26
27
27
28
29
31
32
34
36
38
41
43
44
43
20
239
255
255
255
255
255
73
253
255
255
255
255
245
246
250
254
147
11
27
25
24
24
23
23
22
22
23
24
24
25
26
28
31
32
35
38
40
43
44
35
36
255
255
255
255
255
53
254
255
255
255
255
42
42
57
72
13
25
22
21
20
19
18
18
18
18
18
19
20
21
23
24
27
29
31
34
37
40
43
45
20
193
255
255
255
255
60
253
255
255
255
255
8
32
34
23
14
20
18
17
15
14
13
13
13
13
14
14
16
17
19
21
22
25
28
30
34
37
40
43
43
45
255
255
255
255
105
216
255
255
255
234
10
22
25
2
17
15
14
12
11
11
12
12
12
12
11
11
12
14
15
17
19
22
25
27
30
34
38
41
44
12
203
255
255
255
219
13
227
255
255
201
9
13
12
3
14
11
11
13
15
18
19
20
20
19
18
16
13
11
11
14
16
18
22
25
28
32
35
39
43
32
108
255
255
255
255
198
0
111
202
135
9
8
4
7
11
13
18
21
24
25
27
29
29
27
25
23
21
16
13
10
13
15
19
22
26
29
33
37
40
46
58
255
255
255
255
255
224
111
62
23
38
34
11
10
16
21
25
29
32
34
36
36
36
35
33
31
27
23
19
13
10
13
17
20
24
27
31
35
39
45
36
255
255
255
255
255
255
255
255
108
65
64
18
18
23
28
32
36
40
42
44
44
44
43
40
38
34
29
24
19
13
10
14
18
22
25
29
33
37
43
23
255
255
255
255
255
255
255
255
87
84
93
21
24
30
35
40
44
48
50
52
53
52
50
48
44
40
35
29
24
18
11
12
16
19
24
28
32
36
42
17
255
255
255
255
255
255
255
255
62
76
90
23
30
36
42
47
52
55
58
60
61
60
58
54
50
45
40
34
28
22
16
10
14
18
22
26
31
35
40
19
255
255
255
255
255
255
255
255
18
51
62
21
35
42
48
54
59
63
67
68
68
67
65
61
56
51
45
39
33
26
19
12
13
17
21
26
30
34
40
26
255
255
255
255
255
255
255
255
152
104
65
29
33
48
55
60
66
71
74
76
76
75
72
67
62
56
50
43
36
29
21
14
12
16
21
24
29
33
40
42
255
255
255
255
255
255
255
255
255
255
255
170
21
54
60
66
73
78
82
85
84
82
77
72
66
60
54
46
38
31
23
16
11
16
20
25
28
33
36
72
255
255
255
255
255
255
255
255
255
255
255
230
4
57
66
72
79
85
90
93
92
88
83
77
70
63
55
48
40
32
24
16
11
15
20
24
28
33
20
140
255
255
255
255
255
255
255
255
255
255
255
255
53
49
70
77
85
91
98
101
99
93
87
80
72
65
57
48
41
33
25
17
11
15
20
24
28
33
6
245
255
255
255
255
255
255
255
255
255
255
255
255
212
23
73
81
88
97
104
108
104
97
89
81
73
65
57
49
41
33
25
16
11
15
19
25
29
29
102
255
255
255
255
255
255
255
255
255
255
255
255
255
253
47
56
82
90
98
106
110
104
97
88
80
72
64
56
47
40
32
24
16
11
16
20
25
30
11
226
255
255
255
255
255
255
255
255
255
255
255
255
255
255
222
11
77
89
95
101
102
98
92
85
78
70
62
54
46
38
30
22
13
12
16
21
26
16
125
255
255
255
255
255
255
255
255
255
255
255
255
255
255
255
255
156
25
81
90
94
95
91
86
79
73
65
58
50
43
35
28
20
12
13
18
22
21
60
255
255
255
255
255
255
255
255
255
255
255
255
255
255
255
255
255
255
125
27
83
86
86
84
79
74
67
61
54
46
39
32
24
16
11
14
19
18
29
247
255
255
255
255
255
255
255
255
255
255
255
255
255
255
255
255
255
255
255
118
18
66
78
76
72
67
61
55
49
42
34
28
20
12
12
16
12
54
250
255
255
255
255
255
255
255
255
255
255
255
255
255
255
255
255
255
255
255
255
255
200
2
37
66
64
60
55
49
43
36
30
23
15
11
12
2
121
253
255
255
255
255
255
255
255
255
255
255
255
255
255
255
255
255
255
255
255
255
255
255
255
247
121
31
24
36
41
41
37
31
23
14
7
5
84
204
255
255
255
255
255
255
255
255
255
255
255
255
255
255
255
255
255
255
255
255
255
255
255
255
255
255
255
255
194
85
10
3
3
3
2
54
152
251
255
255
255
255
255
255
255
255
255
255
255
255
255
255
255
255
255
255
255
255
255
255
255
255
255
255
255
255
255
255
255
255
255
248
239
243
255
255
255
255
255
255
255
255
255
255
255
255
255
255
255
255
255
255
255
255
255
255
255
255
255
255
255
255
255
255
255
255
255
255
255
255
255
255
255
255
255
255
255
255
255
255
255
255
255
255
255
255
255
255
255
255
255
255
255
255
255
255
255
255
255
255
255
255
255
255
255
255
255
255
255
255
255
255
255
255
255
255
255
255
255
255
255
255
255
255
255
255
255
255
255
255
